<?xml version="1.0" encoding="UTF-8"?>
<svg xmlns="http://www.w3.org/2000/svg" xmlns:xlink="http://www.w3.org/1999/xlink" viewBox="0 0 400 400">
  <defs>
    <style>
      .cls-1 {
        fill: url(#Gradiente_sem_nome_2);
      }

      .cls-1, .cls-2, .cls-3, .cls-4, .cls-5, .cls-6, .cls-7, .cls-8 {
        stroke-width: 0px;
      }

      .cls-2 {
        fill: url(#radial-gradient-2);
      }

      .cls-2, .cls-8 {
        mix-blend-mode: multiply;
        opacity: .5;
      }

      .cls-9 {
        isolation: isolate;
      }

      .cls-3 {
        fill: #1f1e21;
        opacity: .2;
      }

      .cls-4 {
        fill: none;
      }

      .cls-10 {
        filter: url(#drop-shadow-1);
      }

      .cls-5, .cls-11 {
        fill: #fff;
      }

      .cls-6 {
        fill: url(#Gradiente_sem_nome_12);
      }

      .cls-7 {
        fill: url(#Gradiente_sem_nome_4);
      }

      .cls-11 {
        font-family: Supercharge3D, 'Supercharge 3D';
        font-size: 55.62px;
      }

      .cls-12 {
        fill: #780808;
        font-family: Supercharge, Supercharge;
        font-size: 59.46px;
      }

      .cls-8 {
        fill: url(#radial-gradient);
      }
    </style>
    <linearGradient id="Gradiente_sem_nome_4" data-name="Gradiente sem nome 4" x1="200" y1="399.51" x2="200" y2=".56" gradientUnits="userSpaceOnUse">
      <stop offset="0" stop-color="#fa5744"/>
      <stop offset="1" stop-color="#fb8773"/>
    </linearGradient>
    <linearGradient id="Gradiente_sem_nome_2" data-name="Gradiente sem nome 2" x1="200" y1="399.51" x2="200" y2=".56" gradientUnits="userSpaceOnUse">
      <stop offset="0" stop-color="#fa5744"/>
      <stop offset="1" stop-color="#fb8773"/>
    </linearGradient>
    <linearGradient id="Gradiente_sem_nome_12" data-name="Gradiente sem nome 12" x1="200" y1="399.51" x2="200" y2=".56" gradientUnits="userSpaceOnUse">
      <stop offset="0" stop-color="#fa5744"/>
      <stop offset=".27" stop-color="#fa5c49"/>
      <stop offset=".6" stop-color="#fa6b57"/>
      <stop offset=".96" stop-color="#fa836f"/>
      <stop offset="1" stop-color="#fb8773"/>
    </linearGradient>
    <radialGradient id="radial-gradient" cx="3532.6" cy="16672.61" fx="3532.6" fy="16672.61" r="29.15" gradientTransform="translate(-7220.02 -4032.67) scale(2.08 .26)" gradientUnits="userSpaceOnUse">
      <stop offset="0" stop-color="#1a222d"/>
      <stop offset=".1" stop-color="#434c57"/>
      <stop offset=".27" stop-color="#848c98"/>
      <stop offset=".42" stop-color="#b3bcc7"/>
      <stop offset=".53" stop-color="#d0d9e5"/>
      <stop offset=".59" stop-color="#dbe4f0"/>
      <stop offset=".63" stop-color="#e3eaf3"/>
      <stop offset=".73" stop-color="#f3f6fa"/>
      <stop offset=".84" stop-color="#fcfcfd"/>
      <stop offset="1" stop-color="#fff"/>
    </radialGradient>
    <radialGradient id="radial-gradient-2" cx="3586.62" fx="3586.62" r="29.15" xlink:href="#radial-gradient"/>
    <filter id="drop-shadow-1" filterUnits="userSpaceOnUse">
      <feOffset dx="1.91" dy="1.91"/>
      <feGaussianBlur result="blur" stdDeviation="1.91"/>
      <feFlood flood-color="#000" flood-opacity=".4"/>
      <feComposite in2="blur" operator="in"/>
      <feComposite in="SourceGraphic"/>
    </filter>
  </defs>
  <g class="cls-9">
    <g id="Camada_1" data-name="Camada 1">
      <g>
        <rect class="cls-7" x="0" y="0" width="400" height="400" rx="200" ry="200"/>
        <rect class="cls-3" x="8" y="8" width="384" height="384" rx="192" ry="192"/>
        <rect class="cls-1" x="14" y="14" width="372" height="372" rx="186" ry="186"/>
        <rect class="cls-3" x="20" y="20" width="360" height="360" rx="180" ry="180"/>
        <rect class="cls-6" x="26" y="26" width="348" height="348" rx="174" ry="174"/>
        <rect class="cls-4" x="0" y="0" width="400" height="400" rx="200" ry="200"/>
        <g>
          <text class="cls-12" transform="translate(78.52 146.2)"><tspan x="0" y="0">shape</tspan></text>
          <text class="cls-11" transform="translate(124.86 192.37)"><tspan x="0" y="0">app</tspan></text>
        </g>
        <g>
          <path class="cls-8" d="m205.17,295.29c0,4.18-27.21,7.57-60.77,7.57s-60.77-3.39-60.77-7.57,27.21-7.57,60.77-7.57,60.77,3.39,60.77,7.57Z"/>
          <path class="cls-2" d="m317.79,295.29c0,4.18-27.21,7.57-60.77,7.57s-60.77-3.39-60.77-7.57,27.21-7.57,60.77-7.57,60.77,3.39,60.77,7.57Z"/>
          <g class="cls-10">
            <rect class="cls-5" x="164.56" y="249.43" width="70.88" height="8.78"/>
            <path class="cls-5" d="m121.41,253.77c0-12.07,0-24.13,0-36.2,0-4.29,2.44-6.72,6.75-6.72,9.94,0,19.88,0,29.82,0,4.05,0,6.57,2.5,6.57,6.53,0,24.29,0,48.58,0,72.86,0,4.03-2.52,6.53-6.56,6.53-10,0-20.01,0-30.01,0-4.09,0-6.57-2.5-6.57-6.62,0-12.13,0-24.26,0-36.38Zm2.81.05c0,11.88,0,23.76,0,35.64,0,1.81.48,2.3,2.25,2.3,11,0,22.01,0,33.01,0,1.77,0,2.25-.49,2.25-2.3,0-23.76,0-47.52,0-71.28,0-1.83-.48-2.3-2.35-2.3-10.94,0-21.88,0-32.82,0-1.9,0-2.34.45-2.34,2.39,0,11.85,0,23.7,0,35.54Zm18.8-40.71c-1.03,0-2.06,0-3.09,0-.33,0-.68.03-.67.45,0,.4.36.46.69.46,2.03,0,4.05,0,6.08,0,.33,0,.68-.06.67-.47,0-.42-.36-.43-.69-.43-1,0-2,0-2.99,0Zm7.4.48c-.08-.44-.21-.84-.76-.86-.57-.03-.86.25-.88.82-.02.54.3.81.77.84.49.02.79-.27.87-.79Z"/>
            <path class="cls-5" d="m93.93,253.79c0-7.69,0-15.37,0-23.06,0-2.74,1.55-4.28,4.3-4.28,6.33,0,12.67,0,19,0,2.58,0,4.18,1.59,4.19,4.16,0,15.47,0,30.95,0,46.42,0,2.57-1.6,4.16-4.18,4.16-6.37,0-12.75,0-19.12,0-2.6,0-4.18-1.59-4.18-4.22,0-7.73,0-15.45,0-23.18Zm1.79.03c0,7.57,0,15.14,0,22.7,0,1.15.31,1.46,1.44,1.46,7.01,0,14.02,0,21.03,0,1.13,0,1.43-.31,1.43-1.47,0-15.14,0-30.27,0-45.41,0-1.17-.3-1.46-1.5-1.46-6.97,0-13.94,0-20.91,0-1.21,0-1.49.29-1.49,1.52,0,7.55,0,15.1,0,22.65Zm11.98-25.94c-.66,0-1.31,0-1.97,0-.21,0-.43.02-.43.29,0,.26.23.29.44.29,1.29,0,2.58,0,3.87,0,.21,0,.43-.04.43-.3,0-.27-.23-.28-.44-.28-.64,0-1.27,0-1.91,0Zm4.71.31c-.05-.28-.13-.53-.49-.55-.36-.02-.55.16-.56.52-.02.34.19.52.49.53.31.01.5-.18.56-.5Z"/>
            <path class="cls-5" d="m76.34,253.8c0-4.92,0-9.84,0-14.75,0-1.75.99-2.74,2.75-2.74,4.05,0,8.1,0,12.15,0,1.65,0,2.68,1.02,2.68,2.66,0,9.9,0,19.8,0,29.7,0,1.64-1.03,2.66-2.68,2.66-4.08,0-8.15,0-12.23,0-1.67,0-2.68-1.02-2.68-2.7,0-4.94,0-9.89,0-14.83Zm1.15.02c0,4.84,0,9.68,0,14.53,0,.74.2.94.92.94,4.48,0,8.97,0,13.45,0,.72,0,.92-.2.92-.94,0-9.68,0-19.37,0-29.05,0-.75-.19-.94-.96-.94-4.46,0-8.92,0-13.38,0-.77,0-.96.18-.96.98,0,4.83,0,9.66,0,14.49Zm7.66-16.59c-.42,0-.84,0-1.26,0-.14,0-.28.01-.27.18,0,.16.15.19.28.19.83,0,1.65,0,2.48,0,.13,0,.28-.03.27-.19,0-.17-.15-.18-.28-.18-.41,0-.81,0-1.22,0Zm3.01.2c-.03-.18-.08-.34-.31-.35-.23-.01-.35.1-.36.33-.01.22.12.33.32.34.2,0,.32-.11.36-.32Z"/>
            <path class="cls-5" d="m235.44,253.77c0-12.07,0-24.13,0-36.2,0-4.29,2.44-6.72,6.75-6.72,9.94,0,19.88,0,29.82,0,4.05,0,6.57,2.5,6.57,6.53,0,24.29,0,48.58,0,72.86,0,4.03-2.52,6.53-6.56,6.53-10,0-20.01,0-30.01,0-4.09,0-6.57-2.5-6.57-6.62,0-12.13,0-24.26,0-36.38Zm2.81.05c0,11.88,0,23.76,0,35.64,0,1.81.48,2.3,2.25,2.3,11,0,22.01,0,33.01,0,1.77,0,2.25-.49,2.25-2.3,0-23.76,0-47.52,0-71.28,0-1.83-.48-2.3-2.35-2.3-10.94,0-21.88,0-32.82,0-1.9,0-2.34.45-2.34,2.39,0,11.85,0,23.7,0,35.54Zm18.8-40.71c-1.03,0-2.06,0-3.09,0-.33,0-.68.03-.67.45,0,.4.36.46.69.46,2.03,0,4.05,0,6.08,0,.33,0,.68-.06.67-.47,0-.42-.36-.43-.69-.43-1,0-2,0-2.99,0Zm7.4.48c-.08-.44-.21-.84-.76-.86-.57-.03-.86.25-.88.82-.02.54.3.81.77.84.49.02.79-.27.87-.79Z"/>
            <path class="cls-5" d="m278.59,253.79c0-7.69,0-15.37,0-23.06,0-2.74,1.55-4.28,4.3-4.28,6.33,0,12.67,0,19,0,2.58,0,4.18,1.59,4.19,4.16,0,15.47,0,30.95,0,46.42,0,2.57-1.6,4.16-4.18,4.16-6.37,0-12.75,0-19.12,0-2.6,0-4.18-1.59-4.18-4.22,0-7.73,0-15.45,0-23.18Zm1.79.03c0,7.57,0,15.14,0,22.7,0,1.15.31,1.46,1.44,1.46,7.01,0,14.02,0,21.03,0,1.13,0,1.43-.31,1.43-1.47,0-15.14,0-30.27,0-45.41,0-1.17-.3-1.46-1.5-1.46-6.97,0-13.94,0-20.91,0-1.21,0-1.49.29-1.49,1.52,0,7.55,0,15.1,0,22.65Zm11.98-25.94c-.66,0-1.31,0-1.97,0-.21,0-.43.02-.43.29,0,.26.23.29.44.29,1.29,0,2.58,0,3.87,0,.21,0,.43-.04.43-.3,0-.27-.23-.28-.44-.28-.64,0-1.27,0-1.91,0Zm4.71.31c-.05-.28-.13-.53-.49-.55-.36-.02-.55.16-.56.52-.02.34.19.52.49.53.31.01.5-.18.56-.5Z"/>
            <path class="cls-5" d="m306.07,253.8c0-4.92,0-9.84,0-14.75,0-1.75.99-2.74,2.75-2.74,4.05,0,8.1,0,12.15,0,1.65,0,2.68,1.02,2.68,2.66,0,9.9,0,19.8,0,29.7,0,1.64-1.03,2.66-2.68,2.66-4.08,0-8.15,0-12.23,0-1.67,0-2.68-1.02-2.68-2.7,0-4.94,0-9.89,0-14.83Zm1.15.02c0,4.84,0,9.68,0,14.53,0,.74.2.94.92.94,4.48,0,8.97,0,13.45,0,.72,0,.92-.2.92-.94,0-9.68,0-19.37,0-29.05,0-.75-.19-.94-.96-.94-4.46,0-8.92,0-13.38,0-.77,0-.96.18-.96.98,0,4.83,0,9.66,0,14.49Zm7.66-16.59c-.42,0-.84,0-1.26,0-.14,0-.28.01-.27.18,0,.16.15.19.28.19.83,0,1.65,0,2.48,0,.13,0,.28-.03.27-.19,0-.17-.15-.18-.28-.18-.41,0-.81,0-1.22,0Zm3.01.2c-.03-.18-.08-.34-.31-.35-.23-.01-.35.1-.36.33-.01.22.12.33.32.34.2,0,.32-.11.36-.32Z"/>
            <rect class="cls-5" x="164.56" y="239.05" width="3.2" height="29.53"/>
            <rect class="cls-5" x="232.24" y="239.05" width="3.2" height="29.53"/>
          </g>
        </g>
      </g>
    </g>
  </g>
</svg>